HIERARCHY
ROOT Hips
{
	OFFSET 0.000000 35.082581 0.000000
	CHANNELS 6 Xposition Yposition Zposition Xrotation Yrotation Zrotation 
	JOINT Spine
	{
		OFFSET 0.000000 6.876099 0.125700
		CHANNELS 3 Xrotation Yrotation Zrotation
		JOINT Spine1
		{
			OFFSET 0.000000 5.730043 0.104720
			CHANNELS 3 Xrotation Yrotation Zrotation
			JOINT Spine1_split
			{
				OFFSET 0.000000 5.730043 0.104720
				CHANNELS 3 Xrotation Yrotation Zrotation
				JOINT Spine2
				{
					OFFSET 0.000000 5.730043 0.104720
					CHANNELS 3 Xrotation Yrotation Zrotation
					JOINT Neck
					{
						OFFSET 0.000000 10.314075 0.188496
						CHANNELS 3 Xrotation Yrotation Zrotation
						JOINT Head
						{
							OFFSET 0.000000 7.643700 -2.377400
							CHANNELS 3 Xrotation Yrotation Zrotation
							JOINT HeadTop_End
							{
								OFFSET 0.000000 43.788605 -13.619600
								CHANNELS 3 Xrotation Yrotation Zrotation
								End Site
								{
									OFFSET 0.000000 0.000000 0.000000
								}
							}
						}
					}
					JOINT LeftShoulder
					{
						OFFSET 2.196100 4.412489 0.087492
						CHANNELS 3 Xrotation Yrotation Zrotation
						JOINT LeftShoulder_split
						{
							OFFSET 2.196100 4.412489 0.087492
							CHANNELS 3 Xrotation Yrotation Zrotation
							JOINT LeftArm
							{
								OFFSET 8.771219 -2.981674 -0.026999
								CHANNELS 3 Xrotation Yrotation Zrotation
								JOINT LeftForeArm
								{
									OFFSET 8.512804 0.000000 -0.000000
									CHANNELS 3 Xrotation Yrotation Zrotation
									JOINT LeftHand
									{
										OFFSET 18.484802 0.000000 -0.000000
										CHANNELS 3 Xrotation Yrotation Zrotation
										JOINT LeftHandThumb1
										{
											OFFSET 2.499420 -1.158070 2.653252
											CHANNELS 3 Xrotation Yrotation Zrotation
											JOINT LeftHandThumb2
											{
												OFFSET 2.370079 -1.368366 1.368366
												CHANNELS 3 Xrotation Yrotation Zrotation
												JOINT LeftHandThumb3
												{
													OFFSET 2.676727 -1.545410 1.545409
													CHANNELS 3 Xrotation Yrotation Zrotation
													JOINT LeftHandThumb4
													{
														OFFSET 1.692226 -0.977005 0.977007
														CHANNELS 3 Xrotation Yrotation Zrotation
														End Site
														{
															OFFSET 0.000000 0.000000 0.000000
														}
													}
												}
											}
										}
										JOINT LeftHandIndex1
										{
											OFFSET 7.924831 -0.457527 2.345128
											CHANNELS 3 Xrotation Yrotation Zrotation
											JOINT LeftHandIndex2
											{
												OFFSET 3.643303 0.000000 0.000000
												CHANNELS 3 Xrotation Yrotation Zrotation
												JOINT LeftHandIndex3
												{
													OFFSET 3.810799 0.000000 0.000000
													CHANNELS 3 Xrotation Yrotation Zrotation
													JOINT LeftHandIndex4
													{
														OFFSET 2.403702 0.000000 0.000000
														CHANNELS 3 Xrotation Yrotation Zrotation
														End Site
														{
															OFFSET 0.000000 0.000000 0.000000
														}
													}
												}
											}
										}
										JOINT LeftHandMiddle1
										{
											OFFSET 8.563995 0.000000 -0.000000
											CHANNELS 3 Xrotation Yrotation Zrotation
											JOINT LeftHandMiddle2
											{
												OFFSET 3.861618 0.000000 0.000000
												CHANNELS 3 Xrotation Yrotation Zrotation
												JOINT LeftHandMiddle3
												{
													OFFSET 3.701603 0.000000 0.000000
													CHANNELS 3 Xrotation Yrotation Zrotation
													JOINT LeftHandMiddle4
													{
														OFFSET 2.322544 0.000000 0.000000
														CHANNELS 3 Xrotation Yrotation Zrotation
														End Site
														{
															OFFSET 0.000000 0.000000 0.000000
														}
													}
												}
											}
										}
										JOINT LeftHandRing1
										{
											OFFSET 8.426460 -0.424637 -3.286992
											CHANNELS 3 Xrotation Yrotation Zrotation
											JOINT LeftHandRing2
											{
												OFFSET 3.126408 0.000000 0.000000
												CHANNELS 3 Xrotation Yrotation Zrotation
												JOINT LeftHandRing3
												{
													OFFSET 3.085026 0.000000 0.000000
													CHANNELS 3 Xrotation Yrotation Zrotation
													JOINT LeftHandRing4
													{
														OFFSET 1.644005 0.000000 0.000000
														CHANNELS 3 Xrotation Yrotation Zrotation
														End Site
														{
															OFFSET 0.000000 0.000000 0.000000
														}
													}
												}
											}
										}
									}
								}
							}
						}
					}
					JOINT RightShoulder
					{
						OFFSET -2.196100 4.412496 0.070690
						CHANNELS 3 Xrotation Yrotation Zrotation
						JOINT RightShoulder_split
						{
							OFFSET -2.196100 4.412496 0.070690
							CHANNELS 3 Xrotation Yrotation Zrotation
							JOINT RightArm
							{
								OFFSET -8.771282 -2.981682 -0.094208
								CHANNELS 3 Xrotation Yrotation Zrotation
								JOINT RightForeArm
								{
									OFFSET -8.494598 0.000000 0.000000
									CHANNELS 3 Xrotation Yrotation Zrotation
									JOINT RightHand
									{
										OFFSET -18.483803 0.000000 0.000001
										CHANNELS 3 Xrotation Yrotation Zrotation
										JOINT RightHandThumb1
										{
											OFFSET -2.527351 -1.008072 2.575253
											CHANNELS 3 Xrotation Yrotation Zrotation
											JOINT RightHandThumb2
											{
												OFFSET -2.321518 -1.340328 1.340329
												CHANNELS 3 Xrotation Yrotation Zrotation
												JOINT RightHandThumb3
												{
													OFFSET -2.657753 -1.534454 1.534455
													CHANNELS 3 Xrotation Yrotation Zrotation
													JOINT RightHandThumb4
													{
														OFFSET -1.807510 -1.043568 1.043567
														CHANNELS 3 Xrotation Yrotation Zrotation
														End Site
														{
															OFFSET 0.000000 0.000000 0.000000
														}
													}
												}
											}
										}
										JOINT RightHandIndex1
										{
											OFFSET -8.811420 0.015533 2.887987
											CHANNELS 3 Xrotation Yrotation Zrotation
											JOINT RightHandIndex2
											{
												OFFSET -3.537502 0.000000 0.000000
												CHANNELS 3 Xrotation Yrotation Zrotation
												JOINT RightHandIndex3
												{
													OFFSET -3.356201 0.000000 0.000000
													CHANNELS 3 Xrotation Yrotation Zrotation
													JOINT RightHandIndex4
													{
														OFFSET -1.933098 0.000000 0.000000
														CHANNELS 3 Xrotation Yrotation Zrotation
														End Site
														{
															OFFSET 0.000000 0.000000 0.000000
														}
													}
												}
											}
										}
										JOINT RightHandMiddle1
										{
											OFFSET -8.178135 0.000000 0.000000
											CHANNELS 3 Xrotation Yrotation Zrotation
											JOINT RightHandMiddle2
											{
												OFFSET -3.901302 0.000000 0.000000
												CHANNELS 3 Xrotation Yrotation Zrotation
												JOINT RightHandMiddle3
												{
													OFFSET -3.909599 0.000000 0.000000
													CHANNELS 3 Xrotation Yrotation Zrotation
													JOINT RightHandMiddle4
													{
														OFFSET -2.376003 0.000000 0.000000
														CHANNELS 3 Xrotation Yrotation Zrotation
														End Site
														{
															OFFSET 0.000000 0.000000 0.000000
														}
													}
												}
											}
										}
										JOINT RightHandRing1
										{
											OFFSET -7.559013 0.014137 -2.865403
											CHANNELS 3 Xrotation Yrotation Zrotation
											JOINT RightHandRing2
											{
												OFFSET -3.449306 0.000000 0.000000
												CHANNELS 3 Xrotation Yrotation Zrotation
												JOINT RightHandRing3
												{
													OFFSET -3.362106 0.000000 0.000000
													CHANNELS 3 Xrotation Yrotation Zrotation
													JOINT RightHandRing4
													{
														OFFSET -2.076401 0.000000 0.000000
														CHANNELS 3 Xrotation Yrotation Zrotation
														End Site
														{
															OFFSET 0.000000 0.000000 0.000000
														}
													}
												}
											}
										}
									}
								}
							}
						}
					}
				}
			}
		}
	}
	JOINT LeftUpLeg
	{
		OFFSET 10.205400 -3.823500 0.155100
		CHANNELS 3 Xrotation Yrotation Zrotation
		JOINT LeftLeg
		{
			OFFSET 0.708757 -12.982077 0.567790
			CHANNELS 3 Xrotation Yrotation Zrotation
			JOINT LeftFoot
			{
				OFFSET -0.708756 -10.717838 -2.184338
				CHANNELS 3 Xrotation Yrotation Zrotation
				JOINT LeftToeBase
				{
					OFFSET 0.108149 -7.191104 7.560241
					CHANNELS 3 Xrotation Yrotation Zrotation
					JOINT LeftToe_End
					{
						OFFSET 0.070230 0.081724 4.490308
						CHANNELS 3 Xrotation Yrotation Zrotation
						End Site
						{
							OFFSET 0.000000 0.000000 0.000000
						}
					}
				}
			}
		}
	}
	JOINT RightUpLeg
	{
		OFFSET -10.205400 -3.823500 0.005500
		CHANNELS 3 Xrotation Yrotation Zrotation
		JOINT RightLeg
		{
			OFFSET -0.708756 -12.982134 0.610632
			CHANNELS 3 Xrotation Yrotation Zrotation
			JOINT RightFoot
			{
				OFFSET 0.708754 -10.717769 -1.945823
				CHANNELS 3 Xrotation Yrotation Zrotation
				JOINT RightToeBase
				{
					OFFSET -0.108140 -7.191069 7.372968
					CHANNELS 3 Xrotation Yrotation Zrotation
					JOINT RightToe_End
					{
						OFFSET -0.070227 0.081735 4.479403
						CHANNELS 3 Xrotation Yrotation Zrotation
						End Site
						{
							OFFSET 0.000000 0.000000 0.000000
						}
					}
				}
			}
		}
	}
}
MOTION
Frames: 6
Frame Time: 0.016667
-0.335161 33.573715 -1.251438 -3.661921 3.364530 2.122300 4.353744 -0.794105 -0.458964 1.013959 -0.170731 0.054478 0.000000 0.000000 0.000000 1.013874 -0.177046 0.069540 0.942214 -0.544783 0.126543 -6.488562 -5.987211 -1.414549 -0.000000 0.000000 0.000000 0.674917 -2.078751 -16.856714 0.000000 0.000000 0.000000 4.778415 -6.136921 -37.933880 0.000008 -66.118963 0.000006 -4.833215 -7.576977 -60.543056 -7.220073 -16.942347 15.004553 8.348830 0.689821 4.880218 -0.062068 -18.560334 11.893753 -0.000001 0.000002 -0.000000 -0.978075 -1.241623 -15.183690 1.002353 3.278817 -33.989695 0.129191 1.224856 -12.042752 0.000000 0.000002 0.000001 0.805742 5.211346 -29.108828 1.066648 3.372077 -35.098143 0.556049 2.493067 -25.142707 -0.000002 -0.000003 0.000002 6.496534 12.626994 -37.570835 1.949514 4.363754 -48.129102 0.031838 0.610630 -5.969650 0.000000 -0.000000 -0.000001 0.088530 8.205041 21.087065 0.000000 0.000000 0.000000 -3.899873 6.709557 55.252583 0.000013 9.850097 0.000007 33.602410 9.190966 0.661885 9.076633 11.156492 -7.011587 22.190733 -26.308868 10.012005 6.596525 -21.950688 -17.823650 -0.000000 -0.000006 -0.000001 3.041025 7.562649 51.714637 1.573262 -3.491500 48.501904 0.436175 -1.969611 24.970781 -0.000002 -0.000001 0.000000 -3.185441 -4.004867 67.076843 1.304822 -3.234638 43.928293 0.443928 -1.986192 25.195666 -0.000002 -0.000001 0.000003 -4.626541 -1.781855 57.138303 2.278829 -4.005234 59.262758 1.035953 -2.930415 38.931433 0.000001 0.000001 0.000002 -3.002897 7.545339 6.808143 21.687541 2.596367 -0.639736 -14.142357 1.823715 -6.245784 -0.999569 -0.000010 -0.000002 0.000000 -0.000001 -0.000000 -2.753314 -11.019177 -13.311441 27.440037 -2.782671 0.358322 -19.649587 -4.292400 10.877544 -2.517990 0.000010 -0.000002 0.000000 -0.000001 -0.000000 
-0.335840 33.574005 -1.245557 -3.662269 3.448318 2.148275 4.298405 -0.759841 -0.474070 1.003490 -0.162740 0.054479 0.000000 0.000000 0.000000 1.003401 -0.169834 0.069539 0.967347 -0.361658 0.089158 -6.296964 -5.810302 -1.351242 -0.000000 -0.000000 -0.000000 0.668924 -2.098536 -16.856910 0.000000 0.000000 0.000000 4.777330 -6.116302 -37.949368 0.000006 -66.118963 0.000036 -4.804807 -7.604657 -60.565364 -7.220073 -16.942353 15.004556 8.348841 0.690223 4.880261 -0.062063 -18.560344 11.893752 -0.000001 0.000003 -0.000003 -0.984018 -1.230253 -15.277776 0.998185 3.272633 -33.916302 0.129206 1.224832 -12.042733 -0.000000 0.000003 -0.000002 0.808636 5.216540 -29.166950 1.066661 3.372082 -35.098143 0.555583 2.492115 -25.132308 0.000002 0.000001 -0.000000 6.505245 12.626518 -37.619589 1.947867 4.362277 -48.107372 0.031992 0.612056 -5.983745 0.000001 -0.000001 0.000002 0.189321 8.114540 20.696742 0.000000 0.000000 0.000000 -3.948097 6.617980 55.456980 -0.000003 9.661268 0.000001 33.524710 9.281792 1.219426 8.533742 11.109485 -7.539719 22.252738 -26.276141 10.224552 6.552870 -21.210020 -17.627841 0.000002 0.000001 0.000002 3.035196 7.424121 51.008887 1.532237 -3.454820 47.824623 0.431732 -1.960048 24.841261 0.000001 0.000000 -0.000001 -3.314727 -3.863942 66.407067 1.290205 -3.219425 43.668599 0.441283 -1.980547 25.119112 0.000002 0.000002 0.000002 -4.917038 -1.736444 57.961702 2.213080 -3.965498 58.316934 1.017865 -2.907918 38.576318 -0.000002 -0.000000 0.000002 -3.021519 7.562789 6.792747 21.676008 2.541051 -0.675830 -14.118759 1.814370 -6.162672 -0.943210 0.000014 -0.000001 0.000000 -0.000001 -0.000000 -2.679608 -11.026306 -13.324593 27.427997 -2.859568 0.365141 -19.694492 -4.311796 10.909431 -2.517989 0.000014 -0.000002 -0.000000 -0.000001 -0.000000 
-0.336336 33.574268 -1.239549 -3.667799 3.543119 2.177690 4.244401 -0.728557 -0.485603 0.993089 -0.154234 0.054478 0.000000 0.000000 0.000000 0.993005 -0.161421 0.069539 0.993619 -0.171604 0.051405 -6.089672 -5.592143 -1.285595 -0.000000 -0.000000 0.000000 0.669285 -2.097346 -16.856948 0.000000 0.000000 0.000000 4.776125 -6.115304 -37.967731 -0.000017 -66.105282 0.000012 -4.795323 -7.620664 -60.578601 -7.220073 -16.942354 15.004551 8.343785 0.679849 4.884439 -0.062075 -18.560336 11.893751 -0.000005 0.000001 -0.000003 -0.987261 -1.223893 -15.330090 0.996325 3.269892 -33.884241 0.129212 1.224852 -12.042742 -0.000001 -0.000003 0.000002 0.810373 5.219617 -29.201589 1.066663 3.372091 -35.098170 0.555253 2.491386 -25.124631 0.000000 0.000001 -0.000001 6.508789 12.626320 -37.639421 1.946207 4.360801 -48.085648 0.032040 0.612413 -5.987214 -0.000001 0.000001 0.000000 0.288264 8.054243 20.313263 0.000000 0.000000 0.000000 -4.008383 6.518875 55.627164 -0.000007 9.463826 -0.000008 33.489572 9.471058 1.838416 7.972956 11.044952 -8.116748 22.324038 -26.238151 10.469549 6.488877 -20.386361 -17.437529 0.000002 -0.000003 0.000001 3.024037 7.283636 50.293572 1.491103 -3.417182 47.138475 0.428094 -1.952188 24.734680 0.000000 -0.000003 0.000001 -3.452780 -3.715133 65.737060 1.275068 -3.203531 43.398551 0.438263 -1.974090 25.031530 -0.000001 -0.000000 -0.000003 -5.217641 -1.713533 58.887084 2.144037 -3.922143 57.312978 0.999416 -2.884680 38.211268 0.000000 -0.000001 -0.000000 -3.028959 7.572735 6.770705 21.637199 2.482592 -0.702449 -14.074836 1.803027 -6.108576 -0.919580 0.000000 0.000000 -0.000000 0.000000 0.000000 -2.591460 -11.034326 -13.338887 27.414136 -2.942938 0.372328 -19.744272 -4.337482 10.944998 -2.517986 0.000013 -0.000002 0.000000 -0.000002 -0.000000 
-0.335903 33.574806 -1.233418 -3.674857 3.648217 2.215824 4.191172 -0.698457 -0.493609 0.983112 -0.144933 0.054478 0.000000 0.000000 0.000000 0.983031 -0.152244 0.066660 1.021001 0.026482 0.013595 -5.859409 -5.331690 -1.206530 0.000000 -0.000000 -0.000000 0.672025 -2.087344 -16.865525 0.000000 0.000000 0.000000 4.773024 -6.120773 -37.983471 -0.000027 -66.086144 -0.000031 -4.796944 -7.633366 -60.590472 -7.220073 -16.942349 15.004549 8.332864 0.653622 4.892516 -0.061183 -18.560759 11.897659 -0.000000 0.000000 0.000001 -0.987901 -1.222732 -15.339802 0.996458 3.270074 -33.886378 0.129292 1.225284 -12.046899 0.000002 -0.000000 0.000002 0.810706 5.220260 -29.208669 1.066680 3.372085 -35.098156 0.555016 2.490842 -25.118632 -0.000001 -0.000000 0.000000 6.508676 12.626328 -37.638823 1.945095 4.359792 -48.070957 0.031951 0.611799 -5.981304 0.000002 -0.000000 0.000001 0.391144 7.989691 19.911465 0.000000 0.000000 0.000000 -4.059861 6.438532 55.791587 0.000015 9.308319 -0.000018 33.459738 9.705528 2.456260 7.393734 10.964021 -8.735709 22.404769 -26.196680 10.745439 6.405760 -19.486757 -17.252971 0.000003 -0.000002 -0.000000 3.009649 7.138858 49.568684 1.449909 -3.378563 46.443459 0.425179 -1.945845 24.648934 -0.000000 0.000001 -0.000000 -3.597547 -3.558798 65.066131 1.259526 -3.187032 43.119592 0.434898 -1.966878 24.933645 0.000000 -0.000001 -0.000001 -5.523626 -1.714914 59.897904 2.072302 -3.875286 56.257850 0.980675 -2.860756 37.837503 -0.000004 0.000003 0.000002 -3.026227 7.576976 6.731337 21.575116 2.427382 -0.720806 -14.015787 1.790401 -6.057155 -0.909056 0.000010 0.000004 0.000000 -0.000001 -0.000000 -2.497852 -11.042737 -13.363963 27.405933 -3.031941 0.380704 -19.802020 -4.369485 10.986557 -2.517987 0.000011 -0.000003 0.000000 -0.000001 -0.000000 
-0.334818 33.575638 -1.226682 -3.681051 3.756229 2.258275 4.137214 -0.667393 -0.497457 0.973501 -0.135125 0.054478 0.000000 0.000000 0.000000 0.973426 -0.142599 0.063642 1.049472 0.229842 -0.024775 -5.607308 -5.052333 -1.113998 -0.000000 0.000000 0.000000 0.674779 -2.075986 -16.886634 0.000000 0.000000 0.000000 4.763885 -6.120305 -37.993272 -0.000002 -66.070667 0.000002 -4.801423 -7.648562 -60.604815 -7.220073 -16.942351 15.004560 8.318198 0.616274 4.903014 -0.059636 -18.561519 11.904396 -0.000001 0.000001 -0.000002 -0.986159 -1.226068 -15.312184 0.997834 3.272131 -33.910475 0.129407 1.225792 -12.052175 0.000004 0.000001 -0.000001 0.809717 5.218461 -29.188615 1.066659 3.372092 -35.098153 0.554747 2.490298 -25.112719 0.000001 -0.000000 -0.000000 6.506807 12.626428 -37.628366 1.944987 4.359686 -48.069283 0.031857 0.610724 -5.970723 -0.000001 0.000002 -0.000002 0.496751 7.917485 19.494007 0.000000 0.000000 0.000000 -4.102379 6.374808 55.961400 -0.000003 9.187387 -0.000001 33.427694 9.942655 3.036215 6.798102 10.868258 -9.391680 22.496799 -26.157229 11.051498 6.304047 -18.518345 -17.076412 -0.000000 -0.000001 0.000002 2.991403 6.988229 48.837789 1.408909 -3.339148 45.743437 0.423064 -1.941223 24.586514 -0.000001 -0.000000 -0.000000 -3.747460 -3.396087 64.399627 1.243946 -3.170341 42.838455 0.431400 -1.959324 24.831520 -0.000001 -0.000001 0.000001 -5.829323 -1.746450 61.000228 1.998247 -3.824883 55.155000 0.961844 -2.836366 37.458574 0.000003 0.000000 0.000000 -3.020209 7.575500 6.678464 21.510228 2.381348 -0.733163 -13.956833 1.778886 -5.996589 -0.902878 0.000008 0.000003 0.000000 0.000001 0.000000 -2.401838 -11.051471 -13.396444 27.397449 -3.120428 0.389915 -19.862453 -4.405367 11.029501 -2.517991 0.000013 -0.000002 0.000000 0.000003 0.000000 
-0.334885 33.575909 -1.219012 -3.700143 3.875413 2.298901 4.080749 -0.636210 -0.498911 0.963431 -0.125848 0.054478 0.000000 0.000000 0.000000 0.963360 -0.133434 0.060672 1.079022 0.435937 -0.064161 -5.339201 -4.781464 -1.010514 -0.000000 -0.000000 -0.000000 0.676293 -2.067988 -16.914781 0.000000 0.000000 0.000000 4.749162 -6.105753 -37.999105 -0.000001 -66.064841 0.000009 -4.799385 -7.669953 -60.622457 -7.220073 -16.942354 15.004551 8.304612 0.580354 4.912668 -0.057095 -18.562726 11.915513 -0.000003 0.000001 -0.000003 -0.983497 -1.231191 -15.269941 0.999148 3.274106 -33.933790 0.129584 1.226539 -12.059661 0.000002 0.000001 0.000000 0.808011 5.215413 -29.154529 1.066669 3.372100 -35.098153 0.554439 2.489604 -25.105299 0.000005 -0.000001 0.000000 6.505478 12.626498 -37.620860 1.945781 4.360410 -48.079973 0.031800 0.610189 -5.965517 -0.000002 0.000002 -0.000001 0.607332 7.827270 19.047683 0.000000 0.000000 0.000000 -4.127410 6.342301 56.153219 -0.000006 9.128166 0.000016 33.385801 10.141747 3.503530 6.185752 10.758847 -10.077607 22.597848 -26.117452 11.383600 6.185813 -17.487912 -16.906690 -0.000000 -0.000002 -0.000000 2.968657 6.830925 48.100692 1.368051 -3.298924 45.037922 0.421650 -1.938141 24.544831 0.000002 -0.000002 0.000001 -3.899842 -3.227783 63.736286 1.228417 -3.153546 42.557102 0.427795 -1.951533 24.725877 0.000003 0.000003 0.000001 -6.127118 -1.808695 62.170684 1.922647 -3.771244 54.013874 0.943007 -2.811627 37.076002 0.000003 -0.000001 0.000001 -3.012137 7.568747 6.631679 21.461899 2.329906 -0.744101 -13.904909 1.766944 -5.938549 -0.895161 0.000007 0.000000 0.000000 -0.000003 0.000000 -2.276148 -11.061841 -13.418997 27.379860 -3.219802 0.399001 -19.927248 -4.444183 11.074114 -2.517988 0.000014 -0.000001 -0.000000 0.000000 0.000000 
